<svg width="475" height="119" xmlns="http://www.w3.org/2000/svg" xml:space="preserve" version="1.1">

 <g>
  <title>Layer 1</title>
  <g stroke="null" id="svg_26">
   <g stroke="null" id="svg_1">
    <path stroke="null" id="svg_2" d="m223.56923,44.17381l-3.67596,29.73466c-0.17249,1.14595 -0.65759,2.12474 -1.46609,2.91257c-0.84084,0.76398 -1.76793,1.14597 -2.75969,1.14597l-30.01155,0c-0.99176,0 -1.76793,-0.39394 -2.30693,-1.19368c-0.56056,-0.76398 -0.75459,-1.7189 -0.58211,-2.84099l3.64363,-29.77046l6.40334,0l-0.51744,4.2137l-0.19405,1.80246l-1.01331,7.98575l23.92084,0l1.2397,-9.93146l-22.20683,0l0.45276,-4.07045l29.0737,0l0,0.01193zm-9.01208,17.96494l-23.92085,0l-1.27206,10.21794c-0.02155,0.23872 0,0.4536 0.0647,0.63264c0.06468,0.17905 0.1617,0.35811 0.29105,0.52522c0.30185,0.33423 0.67915,0.50134 1.14268,0.50134l20.57906,0c0.4312,0 0.83005,-0.15518 1.20737,-0.46553c0.34496,-0.31035 0.56056,-0.70427 0.6468,-1.19368l1.26126,-10.21794z"/>
    <path stroke="null" id="svg_3" d="m224.92752,78.05054l7.61069,-24.19597c0.17249,-0.54909 0.46353,-0.91913 0.87317,-1.12207c0.40967,-0.19098 0.86243,-0.28647 1.36908,-0.28647l4.67853,0l-6.11227,19.03925c-0.60367,1.94571 -1.63857,3.52139 -3.10464,4.73894c-1.46608,1.20563 -3.02919,1.81438 -4.70009,1.81438l-0.61446,0l0,0.01195zm15.51245,0l0.54977,-5.00153l-6.11227,0l0.25873,-1.76665c0.06467,-0.40585 0.22638,-0.75203 0.48511,-1.02658c0.2587,-0.27454 0.56055,-0.41779 0.90552,-0.41779l4.87256,0l2.24225,-18.78857l-15.46933,0l0.22638,-1.8741c0.06468,-0.47746 0.25871,-0.88332 0.57135,-1.22949c0.31261,-0.33423 0.67912,-0.50134 1.08878,-0.50134l14.01401,0l0.19406,-1.55179c0.06467,-0.50134 0.2695,-0.91914 0.60367,-1.2653c0.33417,-0.33423 0.71149,-0.50134 1.12112,-0.50134l4.90491,0l-0.42044,3.3065l15.50168,0l-0.25873,1.98151c-0.06467,0.4536 -0.24796,0.83559 -0.54977,1.15787s-0.64682,0.46555 -1.03488,0.46555l-14.0787,0l-2.24225,18.78859l6.07993,0l-0.19403,1.48016c-0.06467,0.47748 -0.25873,0.88332 -0.58212,1.22951c-0.32339,0.33423 -0.68991,0.50134 -1.11035,0.50134l-4.58148,0l-0.45279,3.99883c-0.04309,0.28651 -0.16168,0.52522 -0.35571,0.71622s-0.40967,0.28647 -0.64682,0.28647l-5.53012,0l0,0.01195zm15.04889,-6.08777l-1.56311,-19.50479l5.72418,0c0.19406,0 0.36655,0.07162 0.50665,0.21486s0.22641,0.33423 0.24796,0.57298l1.91885,24.80472l-1.03488,0c-1.56311,0 -2.87827,-0.56104 -3.9455,-1.69501c-1.08878,-1.13402 -1.70325,-2.5903 -1.85416,-4.39276z"/>
    <path stroke="null" id="svg_4" d="m304.05283,78.01474l-36.11307,0l0.35574,-2.76936c0.0647,-0.4536 0.24796,-0.82362 0.539,-1.11012s0.63605,-0.42972 1.02411,-0.42972l36.08072,0l-0.32339,2.80515c-0.06467,0.42975 -0.24796,0.78784 -0.539,1.08626s-0.62527,0.4178 -1.02411,0.4178zm1.59546,-27.97993l-32.77124,0l0.32336,-2.80516c0.0647,-0.45361 0.24796,-0.82365 0.539,-1.11012c0.29111,-0.2865 0.64682,-0.42973 1.05646,-0.42973l32.77124,0l-0.32339,2.80515c-0.06467,0.45361 -0.24796,0.82365 -0.539,1.11014s-0.64679,0.42973 -1.05643,0.42973z"/>
    <path stroke="null" id="svg_5" d="m331.62808,74.0159c-0.15091,1.15787 -0.61447,2.11282 -1.4014,2.87677c-0.75461,0.76398 -1.62778,1.14597 -2.59799,1.14597l-10.69379,0l0.0647,-0.6088c0.10779,-0.74008 0.40964,-1.37273 0.90555,-1.8741c0.49585,-0.50131 1.078,-0.75201 1.72476,-0.75201l3.48196,0c0.32339,0 0.61447,-0.11937 0.87317,-0.35809c0.25873,-0.26262 0.40964,-0.59685 0.45279,-1.00269l0.77615,-5.90875l-15.77118,0l0.35574,-3.05583c0.04312,-0.2626 0.15094,-0.47746 0.32343,-0.64458c0.17245,-0.16711 0.36652,-0.25069 0.58209,-0.25069l14.95187,0l0.71149,-6.26685l-15.27527,0l0.32339,-2.91258c0.04312,-0.28647 0.17249,-0.53716 0.37729,-0.74008c0.20483,-0.20293 0.44199,-0.31035 0.70071,-0.31035l14.36978,0l0.64676,-5.32384l-15.6741,0l0.35571,-3.02002c0.04312,-0.2626 0.15094,-0.47746 0.31262,-0.64458c0.16171,-0.16711 0.35574,-0.25069 0.57135,-0.25069l37.41742,0c-0.15094,1.09819 -0.60367,2.02927 -1.3475,2.79321s-1.59546,1.13402 -2.55487,1.13402l-11.83646,0l-0.64679,5.32382l14.85483,0l-0.35571,2.91258c-0.04312,0.2865 -0.16168,0.53716 -0.34497,0.74008s-0.39886,0.31038 -0.63602,0.31038l-14.01401,0l-0.71149,6.26683l15.33997,0l-0.35574,3.05583c-0.04312,0.2626 -0.15091,0.47746 -0.31262,0.64458c-0.16171,0.16711 -0.35574,0.25069 -0.57132,0.25069l-14.59616,0l-0.77615,6.46976z"/>
    <path stroke="null" id="svg_6" d="m375.54587,68.60852l12.64499,9.43011l-3.0831,0c-0.40967,0 -0.79773,0 -1.17502,0c-1.26126,0.04771 -2.36084,-0.01195 -3.29871,-0.20294c-0.94864,-0.17905 -1.97272,-0.69232 -3.0723,-1.52792l-6.40332,-4.71504l-7.31961,4.536c-2.33929,1.27725 -4.80792,1.90991 -7.41666,1.90991l-4.45215,0l15.17822,-9.60918l-10.66141,-8.57065l6.33865,0c1.078,0 2.09134,0.35811 3.0184,1.07431l5.85355,4.92992l7.19028,-4.75085c1.49838,-0.90721 3.08307,-1.37274 4.77554,-1.37274l5.03424,0l-13.15161,8.86908zm2.08054,-22.52481l14.82254,0l-0.42041,2.44705c-0.06473,0.40585 -0.2695,0.71622 -0.61447,0.93108c-0.36652,0.23874 -0.76541,0.35811 -1.20737,0.35811l-35.20752,0l0.42041,-1.87408c0.10779,-0.50136 0.34497,-0.93108 0.71149,-1.30112c0.34497,-0.38197 0.81927,-0.57297 1.43375,-0.57297l11.44836,0l0.12936,-0.75203c0.19403,-0.52522 0.48508,-0.85945 0.87317,-1.00269c0.38806,-0.14323 0.8624,-0.21487 1.43375,-0.21487l6.62973,0l-0.45279,1.98152zm-22.04514,12.7366c-0.08621,-1.12207 0.18329,-2.23219 0.8085,-3.3065c0.62527,-1.09819 1.54153,-1.85022 2.72736,-2.23219l7.31961,-2.05313l2.2099,3.81978l-13.06537,3.77205zm33.96783,0.21486l-12.80667,-3.92722l2.11292,-3.89142l8.22513,2.59029c1.19659,0.42973 2.0159,1.13402 2.46863,2.12477c0.48511,1.01463 0.48511,2.05313 0,3.10358z"/>
    <path stroke="null" id="svg_7" d="m432.56134,59.17841c0.19403,0.02388 0.35574,0.11935 0.48514,0.27454c0.12933,0.1552 0.18323,0.34618 0.16168,0.56104l-1.75714,14.00191c-0.12936,1.09821 -0.58212,2.05313 -1.36905,2.84097c-0.79776,0.76398 -1.6817,1.14592 -2.63034,1.14592l-7.7724,0c0.12939,-0.83556 0.46356,-1.52791 0.99176,-2.06505c0.52823,-0.53717 1.16425,-0.81172 1.89731,-0.81172l0.87317,0c0.34494,0 0.64682,-0.13129 0.90552,-0.39391c0.2587,-0.2626 0.40964,-0.57297 0.45276,-0.93108l1.43375,-11.66229l-23.40341,0l-0.22638,0.39392c-1.47687,2.44705 -3.38492,3.67654 -5.72421,3.67654l-2.92136,0l4.06406,-7.55602c0.19406,-0.35811 0.46356,-0.53716 0.8085,-0.53716l6.14462,0l-0.61447,1.15787l28.2005,-0.09549zm-27.46744,4.10628l6.24164,0l-4.77557,8.78551c-2.38239,3.86754 -5.42236,5.8013 -9.0983,5.8013l-1.17505,0l7.41666,-13.6796c0.33417,-0.6088 0.8085,-0.90721 1.39063,-0.90721zm-8.06348,-7.01884c-0.49585,-0.66847 -0.67914,-1.57565 -0.54977,-2.69772l1.13193,-9.4301l6.69437,0l-0.35571,2.94838l-0.0647,0.6088l-0.16171,1.2653l24.061,0l0.2587,-1.8741l-22.69193,0l0.35574,-2.94838l29.32166,0l-1.1319,9.1078c-0.12939,1.12206 -0.58212,2.08894 -1.36908,2.87677s-1.6601,1.1937 -2.63034,1.1937l-30.59366,0c-0.97021,-0.00003 -1.7356,-0.35811 -2.2746,-1.05045zm6.14462,-2.87679c-0.08621,0.64458 0.15091,0.96687 0.71149,0.96687l22.36853,0c0.58212,0 0.90552,-0.3223 0.97018,-0.96687l0.19406,-1.51599l-24.09335,0l-0.15091,1.51599zm14.0787,9.89563l6.27399,0l-5.69186,10.51634c-1.64932,2.70969 -3.78378,4.07047 -6.40332,4.07047l-2.9537,0l7.48129,-13.75122c0.33417,-0.56104 0.77615,-0.83559 1.29361,-0.83559z"/>
   </g>
   <path stroke="null" id="svg_8" d="m80.47533,35.67479c4.29045,3.16327 9.04443,4.54793 14.16494,4.58376c0.67915,0 0.88396,-0.42972 1.078,-0.93109c0.3234,-0.83557 0.83006,-1.31303 1.63857,-1.63533c8.28983,-3.25876 16.64434,-3.12746 25.04197,-0.59685c1.3475,0.40585 2.71655,0.75203 4.02095,1.27725c2.70578,1.08623 5.2822,0.14323 7.86942,-0.47749c1.97273,-0.46553 1.96194,-0.50134 0.99176,-2.4351c-1.18582,-2.36348 -1.18582,-2.36348 0.95941,-3.65266c4.86179,-2.92455 9.73436,-5.83711 14.57458,-8.80939c0.73303,-0.45361 1.03487,-0.29843 1.40138,0.4536c0.91632,1.93376 1.88651,3.84366 2.88905,5.72968c0.34496,0.65652 0.35574,0.97882 -0.31261,1.37274c-1.6817,0.99075 -1.62779,1.01462 -2.57645,-0.76396c-0.54977,-1.01463 -0.7977,-2.66191 -1.72479,-2.87679c-0.79771,-0.17905 -1.8326,0.89526 -2.73813,1.43242c-3.02917,1.81441 -6.04759,3.66463 -9.08754,5.45515c-0.61447,0.35811 -0.73305,0.65652 -0.3773,1.36079c5.54092,10.91026 11.0603,21.83246 16.55811,32.77855c0.32339,0.64459 0.58212,0.71622 1.14267,0.38199c3.76224,-2.2919 7.53523,-4.58377 11.3298,-6.804c0.86241,-0.50134 0.4312,-0.95496 0.17249,-1.49211c-3.56819,-7.07855 -7.14716,-14.14517 -10.69379,-21.22371c-0.2048,-0.4178 -0.78694,-0.96687 -0.4312,-1.31306c0.58214,-0.57295 1.37985,-0.91911 2.1129,-1.27722c0.23715,-0.11938 0.32338,0.29842 0.43118,0.51328c4.17186,8.27223 8.34375,16.54445 12.53717,24.80476c0.31261,0.62071 0.17247,0.87138 -0.33418,1.18175c-5.41158,3.23488 -10.82314,6.49365 -16.22392,9.77626c-0.60368,0.37004 -0.85162,0.20293 -1.1319,-0.40585c-0.39886,-0.88333 -0.91632,-1.69502 -1.28284,-2.59029c-0.34494,-0.8356 -0.66835,-0.70428 -1.19658,-0.22681c-2.05899,1.89795 -3.8808,4.07045 -5.74574,6.19522c-0.39886,0.46552 -0.30185,0.90718 -0.20483,1.42049c0.36655,2.06505 0.09705,4.03465 -1.00253,5.77742c-1.19658,1.89795 -2.93216,2.64999 -4.9588,2.36346c-0.76538,-0.10742 -0.88396,0.11938 -0.99176,0.85947c-0.58212,4.15402 -2.36082,5.92068 -6.20929,6.20718c-0.48509,0.0358 -0.77615,0.09546 -0.8085,0.75201c-0.23715,4.3689 -2.96449,6.51752 -6.76984,6.23102c-0.84085,-0.05969 -1.16425,0.20291 -1.49843,1.06238c-1.12112,2.93649 -4.07484,4.40469 -7.65381,3.97498c-2.56566,-0.2984 -5.01271,-1.07431 -7.37354,-2.18445c-0.72226,-0.33423 -1.18579,-0.27454 -1.71402,0.38199c-0.68993,0.8714 -1.46608,1.65924 -2.22069,2.45898c-3.773,3.99884 -9.76669,2.27994 -11.26511,-3.25873c-0.24795,-0.91916 -0.44199,-1.24146 -1.42297,-0.91916c-3.99939,1.28918 -7.94487,-1.58759 -8.53777,-6.19522c-0.11858,-0.88333 -0.34496,-1.06238 -1.1319,-1.00272c-4.13953,0.31039 -7.21183,-2.79321 -7.38431,-7.44858c-0.02157,-0.66846 -0.17249,-0.8475 -0.77616,-0.8714c-3.05075,-0.09546 -5.28221,-1.69501 -6.38177,-4.84634c-1.09956,-3.11549 -0.34496,-5.87292 1.81104,-8.20059c1.55232,-1.68311 1.54154,-1.70699 -0.2156,-3.21101c-1.16425,-0.99077 -2.30692,-2.01733 -3.60052,-2.81709c-0.34496,-0.48943 -0.03235,-0.89526 0.16169,-1.28918c2.12366,-4.32114 4.36591,-8.57065 6.44646,-12.91565c0.23716,-0.48941 0.50666,-0.97884 1.078,-1.06238c0.23717,0 0.45276,0.09547 0.65759,0.21486c1.81104,1.01463 1.89729,1.37273 0.88396,3.35425c-1.58466,3.10358 -3.10464,6.24297 -4.70008,9.33461c-0.43121,0.82364 -0.33418,1.33691 0.31262,1.98152c1.46608,1.44437 2.81358,2.31575 5.0127,1.48015c2.6411,-0.99075 5.93978,1.0385 7.31963,3.87947c0.29105,0.6088 0.49588,1.25337 0.74381,1.94571c1.06722,-0.51329 2.10211,-1.08624 3.27712,-1.21756c4.04251,-0.47746 7.65381,3.44975 7.69693,7.29341c0.01079,0.77591 0.21561,1.21759 0.99176,1.1937c2.94295,-0.04773 6.06915,2.48288 6.58659,6.70853c0.12936,1.08621 0.4312,1.48016 1.46608,1.61145c4.08563,0.5491 6.88843,4.8941 6.09071,9.00037c-0.18327,0.95496 0.06468,1.40854 0.90552,1.70697c1.62778,0.57297 3.24478,1.15787 4.93726,1.4444c1.41217,0.23871 2.8028,0.21484 4.06406,-0.6088c1.42296,-0.90723 1.4014,-1.90991 0,-2.81711c-2.98605,-1.92181 -5.95056,-3.85562 -8.9043,-5.8252c-1.17502,-0.78784 -1.21814,-1.02655 -0.50665,-2.35156c0.75459,-1.42047 1.04565,-1.56372 2.16678,-0.85944c3.13698,1.95764 6.22006,4.03464 9.29237,6.1236c1.41219,0.95496 2.86749,1.44437 4.51683,1.28918c1.69246,-0.16711 2.70578,-1.61148 2.42551,-3.48557c-0.1078,-0.74008 -0.59291,-1.05045 -1.09956,-1.37274c-4.04251,-2.53058 -8.06345,-5.13284 -12.09518,-7.69922c-0.45276,-0.28653 -1.15347,-0.48941 -1.03488,-1.21759c0.15091,-0.91913 0.54979,-1.80243 1.25049,-2.38736c0.44197,-0.35809 0.88396,0.0358 1.28282,0.2865c4.21498,2.64993 8.40842,5.33572 12.59105,8.03348c1.17503,0.75201 2.36082,1.03848 3.66521,0.8714c1.78949,-0.21484 3.12621,-2.51871 2.59799,-4.41666c-0.15092,-0.54907 -0.54979,-0.81168 -0.94865,-1.08624c-3.95625,-2.70966 -7.91252,-5.40739 -11.85802,-8.14093c-0.16168,-0.11938 -0.33417,-0.21486 -0.49588,-0.33423c-1.19658,-0.85944 -1.27203,-1.18175 -0.57133,-2.4709c0.71149,-1.33694 1.1319,-1.48018 2.33925,-0.65654c4.36592,2.96034 8.69949,5.96841 13.0654,8.91681c0.70068,0.47751 1.41217,0.88336 2.23145,1.05045c1.36906,0.28647 2.23148,-0.01196 2.75969,-1.00269c0.71149,-1.33694 0.68991,-2.93646 -0.10779,-3.98691c-0.4959,-0.65651 -1.06723,-1.24144 -1.66014,-1.80247c-8.49463,-7.90218 -17.54985,-14.98071 -26.56195,-22.13091c-1.06721,-0.8475 -2.16678,-1.19368 -3.47116,-1.12204c-2.25302,0.10742 -4.312,0.38196 -5.08817,3.33037c-0.24794,0.95494 -0.88396,1.80246 -1.32594,2.70967c-1.53076,3.09163 -3.97782,4.4763 -7.01778,4.73892c-2.52253,0.21486 -5.03426,0.10742 -7.43821,-1.00272c-0.57134,-0.2626 -1.14268,-0.53716 -1.617,-1.00269c-1.02409,-1.01462 -1.2397,-1.95764 -0.61446,-3.31844c1.68168,-3.67654 3.4496,-7.29341 5.20675,-10.93414c0.08623,-0.19098 0.20481,-0.35809 0.30183,-0.54909c0.7546,-1.5876 1.12112,-1.90991 -0.95942,-1.98152c-3.09386,-0.11938 -6.0368,-1.09819 -8.82883,-2.57837c-0.89474,-0.47746 -1.44452,-0.41777 -1.78947,0.65654c-0.0539,0.15518 0.02155,-0.03581 -0.0539,0.10742c-1.28283,2.42317 -1.63857,2.48286 -3.61131,0.57298c-0.23716,-0.52522 -0.0539,-1.0027 0.17248,-1.4563c0.72227,-1.4563 1.49842,-2.87679 2.2099,-4.345c0.20483,-0.39392 0.43121,-0.76396 0.90552,-0.72815z"/>
   <path stroke="null" id="svg_9" fill="#00B2FD" d="m80.47533,35.67479c-1.30437,2.0054 -2.40394,4.13016 -3.22322,6.43396c0.03234,1.05045 -0.67914,1.75471 -1.01332,2.63805c-0.85162,0.94299 -1.28281,2.13669 -1.73559,3.34232c-0.53899,0.9072 -0.73303,2.077 -1.64934,2.70964c-1.09956,1.40857 -1.71402,3.1394 -2.5333,4.72701c-1.59544,3.0797 -3.13698,6.19522 -4.6893,9.29878c-0.18326,0.37006 -0.47433,0.69234 -0.42043,1.15788c-0.58212,1.11014 -1.1858,2.20831 -1.7248,3.35425c-0.28028,0.59683 -0.51744,0.83559 -1.14268,0.4536c-4.57072,-2.78128 -9.16301,-5.55061 -13.76608,-8.28416c-0.78694,-0.46553 -0.51744,-0.9072 -0.20482,-1.52791c5.64872,-11.17288 11.28667,-22.34576 16.92462,-33.53058c1.26126,-2.50674 1.27204,-2.51868 3.60052,-1.11012c3.91314,2.33961 7.80473,4.72699 11.73943,7.01886c0.92708,0.53716 1.17503,1.02657 0.49588,1.98151c-0.28027,0.38197 -0.44198,0.88332 -0.65759,1.33693z" class="st0"/>
   <path stroke="null" id="svg_10" fill="#FCC527" d="m72.22862,9.67636c0.01078,4.27339 -3.05074,7.67538 -6.90999,7.67538c-3.79456,0 -6.85609,-3.40199 -6.85609,-7.59183c0,-4.2137 3.02918,-7.5799 6.84531,-7.5799c3.84846,-0.02388 6.90999,3.29456 6.92077,7.49634z" class="st1"/>
   <path stroke="null" id="svg_11" fill="#010101" d="m88.30162,14.83307c2.46863,0.02386 4.39825,2.1725 4.39825,4.90604c0,2.79321 -1.96196,4.91797 -4.51682,4.8941c-2.45785,-0.02388 -4.40903,-2.18443 -4.40903,-4.8941c0.01077,-2.76933 2.00508,-4.92992 4.5276,-4.90604z" class="st2"/>
   <path stroke="null" id="svg_12" fill="#02B3FD" d="m157.41229,57.72212c1.50919,-0.01193 2.66266,1.22949 2.67343,2.86485c0.0108,1.64728 -1.11034,2.90065 -2.63033,2.91258c-1.50919,0.01195 -2.66264,-1.21754 -2.67343,-2.85291c0,-1.65923 1.1319,-2.9126 2.63033,-2.92453z" class="st3"/>
   <path stroke="null" id="svg_13" fill="#FCC527" d="m145.25244,95.02472c1.48764,0 2.57642,1.1937 2.55486,2.81708c-0.02155,1.57568 -1.19658,2.84097 -2.60876,2.80518c-1.36906,-0.03583 -2.50096,-1.30112 -2.52252,-2.80518c-0.02156,-1.55176 1.12112,-2.80511 2.57643,-2.81708z" class="st1"/>
   <path stroke="null" id="svg_14" fill="#FEFEFE" d="m72.85386,50.7868c0.47433,-0.91914 0.94865,-1.83827 1.42297,-2.76935c0.56056,-0.22681 0.98098,0.17906 1.39062,0.4536c0.62524,0.42973 0.98099,0.26262 1.25049,-0.44165c0.1078,-0.27457 0.25872,-0.52522 0.42042,-0.76396c0.51744,-0.78783 0.46354,-1.36079 -0.39886,-1.80247c-0.35574,-0.17905 -0.81928,-0.34616 -0.87318,-0.91914c0.2695,-0.8833 0.7546,-1.64726 1.1858,-2.4351c0.84084,0.25069 1.54154,1.48018 2.32849,1.02658c0.63602,-0.37004 0.94864,-1.51599 1.30437,-2.36349c0.33418,-0.78784 0.66836,-0.90721 1.39063,-0.50134c3.29868,1.85019 6.80219,2.82903 10.51051,2.8887c0.87318,0.01193 0.99176,0.25067 0.57134,1.08624c-2.00509,4.10628 -3.98861,8.23643 -5.96135,12.36656c-0.89474,1.86217 -0.6468,2.97229 1.078,3.86755c3.89159,2.02925 7.88019,1.98151 11.85802,0.35811c1.15346,-0.47749 1.86494,-1.64729 2.56564,-2.73355c1.09956,-1.71889 1.97274,-3.59299 2.74891,-5.50288c0.22638,-0.57297 0.51744,-0.85944 1.08878,-0.97881c1.56311,-0.32231 3.13698,-0.52522 4.73244,-0.52522c0.45276,0 0.83005,0.11937 1.18579,0.40584c9.59422,7.5441 19.1992,15.08817 28.22208,23.46785c1.41219,1.31302 2.17755,2.73351 1.62778,4.79861c-0.44199,1.67114 -1.54153,2.47092 -3.0723,2.17249c-0.92708,-0.17908 -1.7787,-0.5491 -2.57643,-1.09821c-4.17186,-2.87677 -8.35451,-5.74161 -12.53714,-8.59451c-0.38809,-0.27454 -0.83008,-0.46553 -1.19659,-0.76396c-0.56056,-0.46553 -0.8085,-0.22679 -1.1319,0.37004c-0.94865,1.7428 -0.98099,1.71892 0.54977,2.76936c3.91315,2.68579 7.82629,5.39543 11.761,8.04543c0.91631,0.62073 1.617,1.19366 1.4014,2.57834c-0.23715,1.44437 -0.51743,2.8768 -1.89728,3.42587c-1.41219,0.56104 -2.8567,0.65656 -4.24733,-0.23871c-4.38747,-2.81711 -8.79649,-5.59839 -13.17317,-8.4274c-0.71149,-0.46558 -1.22893,-0.63269 -1.5631,0.41776c-0.07547,0.23874 -0.20482,0.46555 -0.34497,0.66846c-0.539,0.72818 -0.30183,1.09821 0.38808,1.52792c4.18265,2.61417 8.32217,5.29996 12.49403,7.92606c0.77617,0.48944 1.43375,0.90723 1.26126,2.12476c-0.18326,1.28918 -0.40962,2.53061 -1.64934,2.99615c-1.63855,0.62073 -3.28789,0.5849 -4.81866,-0.40582c-3.47116,-2.2561 -6.94232,-4.51215 -10.39194,-6.82788c-0.71147,-0.47751 -1.16423,-0.54913 -1.48763,0.39389c-0.05391,0.15518 -0.12938,0.3223 -0.23717,0.44165c-0.78694,0.95499 -0.38808,1.4205 0.48509,1.96957c3.15854,1.99347 6.25241,4.13019 9.42174,6.09976c0.98097,0.6088 0.91629,1.19366 0.40964,2.01733c-0.63602,1.03848 -1.58467,1.51596 -2.65187,1.64728c-3.02919,0.37003 -5.81044,-0.75204 -8.5809,-1.88605c-0.67914,-0.27451 -0.23717,-0.79974 -0.17249,-1.18173c0.75461,-4.3689 -1.5631,-8.4155 -5.48702,-9.01233c-1.5092,-0.22678 -1.97274,-0.6207 -2.13444,-2.3396c-0.33418,-3.52136 -3.19089,-6.0878 -6.44646,-6.19525c-0.50666,-0.0119 -1.00254,0.19101 -1.04566,-0.82361c-0.22638,-6.23103 -5.56248,-9.44205 -10.46739,-6.3504c-0.09702,0.05968 -0.20481,0.10742 -0.3773,0.20291c-0.08624,-0.23872 -0.17248,-0.45358 -0.23716,-0.68039c-1.21814,-4.536 -5.44391,-6.76817 -9.32471,-4.85829c-0.6468,0.3223 -1.03488,0.2626 -1.53076,-0.23874c-0.77616,-0.76396 -1.60622,-1.4921 -2.45784,-2.14864c-0.58212,-0.44165 -0.58212,-0.81169 -0.24794,-1.46822c1.8326,-3.58105 3.61131,-7.19792 5.45469,-10.76704c0.40964,-0.78781 0.39885,-1.18173 -0.38808,-1.53984c-0.50666,-0.25066 -0.93787,-0.6207 -1.40141,-0.93108z" class="st4"/>
   <path stroke="null" id="svg_15" fill="#FCC426" d="m110.76717,38.27701c4.18265,-0.04774 8.60246,0.75203 12.80666,2.39929c4.02095,1.58762 7.88019,1.30113 11.83646,0.05969c0.33418,-0.10742 0.68993,-0.14323 1.00255,-0.29842c0.62524,-0.29842 0.9702,-0.08356 1.30437,0.56104c4.15031,8.08124 8.3114,16.16249 12.48326,24.23178c0.22639,0.44165 0.38809,0.76396 -0.10779,1.18175c-2.2099,1.82634 -4.10719,4.04659 -5.9937,6.2549c-0.37729,0.4536 -0.63602,0.71622 -1.20735,0.15518c-7.3951,-7.13823 -15.45854,-13.29764 -23.37106,-19.65997c-1.90807,-1.53984 -3.85925,-3.02002 -5.76732,-4.536c-0.42043,-0.33424 -0.84084,-0.52522 -1.37984,-0.54909c-2.57643,-0.0955 -5.09895,0.2626 -7.59991,0.88332c-0.66835,0.16711 -0.94864,0.60878 -1.1858,1.24144c-0.89474,2.32768 -1.91885,4.58374 -3.26635,6.63687c-0.60368,0.91914 -1.36906,1.4563 -2.3716,1.69504c-2.35005,0.56104 -4.67853,0.53716 -7.00701,-0.17905c-0.77615,-0.23875 -0.98097,-0.56104 -0.56055,-1.42049c2.54408,-5.20447 5.05583,-10.42085 7.55679,-15.63727c0.25872,-0.54909 0.63602,-0.81169 1.1319,-0.99075c3.67599,-1.36081 7.48133,-2.06508 11.69631,-2.02927z" class="st5"/>
   <path stroke="null" id="svg_16" fill="#FCC426" d="m80.91731,90.33356c-1.47687,-0.05966 -2.73812,-0.94302 -3.46038,-2.72159c-0.65759,-1.63535 -0.35574,-3.36621 0.85162,-4.71509c1.92962,-2.16055 3.87002,-4.30917 5.83198,-6.44588c1.76792,-1.92183 4.11797,-1.93376 5.77809,-0.07161c1.59544,1.77858 1.53076,4.39273 -0.16171,6.29071c-1.87572,2.10089 -3.79456,4.16595 -5.67028,6.25491c-0.8085,0.90717 -1.74636,1.39658 -3.16933,1.40854z" class="st5"/>
   <path stroke="null" id="svg_17" fill="#FCC426" d="m98.70434,87.73132c-0.03234,1.30112 -0.39886,2.3038 -1.14268,3.12747c-1.70325,1.87408 -3.37415,3.77203 -5.09895,5.61032c-1.71402,1.82632 -4.09641,1.80246 -5.70263,0c-1.60622,-1.79053 -1.5631,-4.39276 0.14014,-6.29071c1.66013,-1.86218 3.32024,-3.71237 5.02349,-5.51483c1.2397,-1.32498 2.93217,-1.63535 4.38747,-0.85947c1.51999,0.81171 2.33926,2.16055 2.39317,3.92722z" class="st5"/>
   <path stroke="null" id="svg_18" fill="#FCC426" d="m102.30486,91.81372c1.67091,0 3.09387,1.02658 3.70833,2.75739c0.61446,1.70697 0.33418,3.29459 -0.8085,4.6315c-1.01332,1.18176 -2.0482,2.33963 -3.12621,3.43784c-1.68168,1.7308 -4.0425,1.63535 -5.61639,-0.17905c-1.51997,-1.75473 -1.5092,-4.29727 0.07546,-6.11169c0.9702,-1.11011 1.97274,-2.18442 2.95372,-3.27069c0.77616,-0.85944 1.70325,-1.31302 2.81358,-1.26529z" class="st5"/>
   <path stroke="null" id="svg_19" fill="#FCC426" d="m69.53362,77.79988c0.02155,-0.74008 -0.01078,-1.28917 0.23715,-1.73087c1.27204,-2.29184 2.88905,-4.26143 5.04504,-5.50285c1.63857,-0.94302 3.58975,-0.11938 4.68932,1.61148c0.99176,1.56372 0.95942,3.80785 -0.20483,5.2522c-1.00254,1.24144 -2.06976,2.43512 -3.21245,3.52139c-1.25047,1.19366 -2.72734,1.40854 -4.22576,0.60873c-1.48764,-0.79974 -2.30692,-2.13666 -2.32848,-3.76009z" class="st5"/>
   <path stroke="null" id="svg_20" fill="#000101" d="m56.56526,59.94238c0.01078,-2.4948 1.82182,-4.46437 4.08562,-4.42856c2.18834,0.03581 3.97783,2.0173 3.99938,4.42856c0.02157,2.45898 -1.82182,4.50018 -4.05328,4.50018c-2.24225,0.01193 -4.04251,-2.01733 -4.03173,-4.50018z" class="st6"/>
   <path stroke="null" id="svg_21" fill="#040505" d="m76.05553,44.54385c0.03233,0.02388 0.06467,0.04776 0.09702,0.07161c2.18834,1.50406 2.16678,1.49211 0.8085,4.01079c-0.30185,0.56102 -0.52823,0.71622 -1.05645,0.33423c-0.50666,-0.37004 -1.08878,-0.63266 -1.62778,-0.93108c0.35574,-1.325 0.87318,-2.53061 1.7787,-3.48555z" class="st7"/>
   <path stroke="null" id="svg_22" fill="#FEFEFE" d="m69.4366,9.68829c0.02156,2.54254 -1.71402,4.52405 -3.97783,4.55986c-2.35004,0.03583 -4.19343,-1.90988 -4.21498,-4.45244c-0.02157,-2.55449 1.80026,-4.57181 4.11797,-4.57181c2.2638,0 4.05328,1.95764 4.07484,4.46439z" class="st4"/>
   <path stroke="null" id="svg_23" fill="#F9F9F9" d="m89.91862,19.75104c-0.01078,1.06238 -0.72226,1.83826 -1.69247,1.83826c-0.95942,-0.01193 -1.6709,-0.79976 -1.66012,-1.86214c0.01078,-1.0385 0.74382,-1.85022 1.69246,-1.83827c0.93787,0 1.67091,0.82365 1.66013,1.86215z" class="st8"/>
   <path stroke="null" id="svg_24" fill="#00ACF4" d="m60.60777,58.58156c0.74382,0.08356 1.22892,0.51328 1.2397,1.37273c0.01078,0.93108 -0.51743,1.43242 -1.31516,1.40857c-0.73304,-0.02388 -1.21814,-0.56104 -1.1858,-1.42049c0.03234,-0.8475 0.48511,-1.30112 1.26126,-1.36081z" class="st9"/>
  </g>
 </g>
</svg>